
        <svg xmlns="http://www.w3.org/2000/svg" xmlns:xlink="http://www.w3.org/1999/xlink" version="1.1" width="3178.5714285714284" 
        height="1014.2857142857143" viewBox="0 0 3178.5714285714284 1014.2857142857143">
			
			<g transform="scale(8.928571428571429) translate(10, 10)">
				<defs id="SvgjsDefs1218"><linearGradient id="SvgjsLinearGradient1223"><stop id="SvgjsStop1224" stop-color="#8f5e25" offset="0"></stop><stop id="SvgjsStop1225" stop-color="#fbf4a1" offset="0.5"></stop><stop id="SvgjsStop1226" stop-color="#8f5e25" offset="1"></stop></linearGradient><linearGradient id="SvgjsLinearGradient1227"><stop id="SvgjsStop1228" stop-color="#8f5e25" offset="0"></stop><stop id="SvgjsStop1229" stop-color="#fbf4a1" offset="0.5"></stop><stop id="SvgjsStop1230" stop-color="#8f5e25" offset="1"></stop></linearGradient></defs><g id="SvgjsG1219" featureKey="symbolFeature-0" transform="matrix(1.56,0,0,1.56,-17.125678024291993,-3.12)" fill="url(#SvgjsLinearGradient1223)"><g xmlns="http://www.w3.org/2000/svg"><path d="M31.998,2c0,0-21.02,27.369-21.02,38.979S20.391,62,32,62s21.021-9.412,21.021-21.021S31.998,2,31.998,2z M43.146,42.166   h-8.373v8.287h-5.568v-8.287h-8.354v-5.72h8.354v-8.288h5.568v8.288h8.373V42.166z"></path></g></g><g id="SvgjsG1220" featureKey="nameFeature-0" transform="matrix(0.8969124402368585,0,0,0.8969124402368585,84.59776898846955,28.878859663544517)" fill="url(#SvgjsLinearGradient1227)"><path d="M31.953 38.5937 l6.5625 0 l0 -27.422 l-6.5625 9.6094 l0 17.813 z M38.516 1.4059999999999988 l-7.0313 0 l-11.484 17.813 l-11.406 -17.813 l-7.0313 0 l0 37.188 l6.5625 0 l0 -26.406 l11.719 17.578 l0.23438 0 l10.234 -15.156 c0.052109 -0.20836 2.7865 -4.6094 8.2031 -13.203 z M47.0938 1.4059999999999988 l27.813 0 l0 5.9375 l-27.813 0 l0 -5.9375 z M47.0938 32.6562 l27.734 0 l0 5.9375 l-27.734 0 l0 -5.9375 z M47.0938 16.875 l25.078 0 l0 5.8594 l-25.078 0 l0 -5.8594 z M114.813 27.344 c-0.98961 2.3959 -2.3438 4.375 -4.0625 5.9375 c-1.7709 1.6666 -3.8542 2.9688 -6.2501 3.9063 s-5.0781 1.4063 -8.0469 1.4063 l-8.6719 0 l0 -5.9375 l8.5938 0 c1.9791 0 3.776 -0.3125 5.3906 -0.9375 c1.5625 -0.625 2.9166 -1.5104 4.0625 -2.6563 s2.0313 -2.5 2.6563 -4.0625 s0.9375 -3.2813 0.9375 -5.1563 c0 -1.8229 -0.3125 -3.5156 -0.9375 -5.0781 c-0.625 -1.6146 -1.5104 -2.9427 -2.6563 -3.9844 c-1.0416 -1.0938 -2.3958 -1.9791 -4.0624 -2.6563 c-1.6666 -0.625 -3.4635 -0.9375 -5.3906 -0.9375 l-8.5938 0 l0 -5.9375 l8.6719 0 c2.7604 0 5.4166 0.49477 7.9688 1.4844 c2.3959 0.88539 4.5052 2.2135 6.3281 3.9844 c1.7709 1.6146 3.125 3.5938 4.0625 5.9375 c0.98961 2.3959 1.4844 4.8438 1.4844 7.3438 c0 2.7084 -0.49477 5.1563 -1.4844 7.3438 z M146.281 16.875 l0 -15.547 l-6.5625 0 l0 37.344 l6.5625 0 l0 -21.797 z M171.2656 12.5 c0.9375 -2.2916 2.2916 -4.2447 4.0624 -5.8593 c1.6146 -1.6146 3.698 -2.9167 6.2501 -3.9063 s5.2344 -1.4844 8.0469 -1.4844 l8.6719 0 l0 5.9375 l-8.5938 0 c-2.0313 0 -3.8281 0.33852 -5.3906 1.0156 c-1.6666 0.67711 -3.0208 1.5625 -4.0624 2.6563 c-1.0938 1.0416 -1.9791 2.3958 -2.6563 4.0624 c-0.625 1.5104 -0.9375 3.2031 -0.9375 5.0781 s0.3125 3.5677 0.9375 5.0781 c0.625 1.5625 1.5104 2.9166 2.6563 4.0625 c1.0416 1.0416 2.3958 1.901 4.0624 2.5781 c1.6666 0.625 3.4635 0.9375 5.3906 0.9375 l8.5938 0 l0 5.9375 l-8.6719 0 c-2.9166 0 -5.5729 -0.46875 -7.9688 -1.4063 c-2.5 -1.0416 -4.6094 -2.3698 -6.3281 -3.9844 c-1.7709 -1.6666 -3.125 -3.6458 -4.0625 -5.9374 c-0.98961 -2.3959 -1.4844 -4.8438 -1.4844 -7.3438 c0 -2.6563 0.49477 -5.1302 1.4844 -7.4219 z M239.609 25 c-0.36461 -0.98961 -0.88531 -1.8488 -1.5624 -2.578 c-0.46875 -0.52086 -1.224 -1.1198 -2.2656 -1.797 c-1.1459 -0.57289 -2.1615 -1.0156 -3.0469 -1.3281 c0.625 -0.36461 1.3021 -0.78125 2.0313 -1.25 c0.72914 -0.625 1.276 -1.224 1.6406 -1.7969 c0.46875 -0.625 0.85938 -1.3802 1.1719 -2.2656 c0.3125 -0.9375 0.46875 -1.9531 0.46875 -3.0469 c0 -2.9166 -1.0938 -5.2344 -3.2813 -6.9531 s-5.1563 -2.5781 -8.9063 -2.5781 l-14.453 0 l0 5.7813 l13.672 0 c1.9791 0 3.5938 0.41664 4.8438 1.25 c1.0938 0.83336 1.6406 2.0313 1.6406 3.5938 c0 1.7709 -0.625 3.0469 -1.875 3.8281 c-1.3021 0.83336 -2.9948 1.25 -5.0782 1.25 l-13.203 0 l0 5.4688 l14.609 0 c2.5 0 4.401 0.44273 5.7031 1.3281 c1.25 0.9375 1.875 2.1875 1.875 3.75 c0 1.6666 -0.625 2.9427 -1.875 3.828 c-1.3021 0.88539 -3.0469 1.3281 -5.2344 1.3281 l-15.078 0 l0 5.7813 l15 0 c2.0313 0 3.9063 -0.23438 5.625 -0.70313 c1.7709 -0.52086 3.2031 -1.1719 4.2969 -1.9531 s2.0313 -1.849 2.8125 -3.2031 c0.625 -1.25 0.9375 -2.7084 0.9375 -4.375 c0 -1.3021 -0.15625 -2.4219 -0.46875 -3.3594 z M278.813 27.344 c-0.98961 2.3959 -2.3438 4.375 -4.0625 5.9375 c-1.7709 1.6666 -3.8542 2.9688 -6.2501 3.9063 s-5.0781 1.4063 -8.0469 1.4063 l-8.6719 0 l0 -5.9375 l8.5938 0 c1.9791 0 3.776 -0.3125 5.3906 -0.9375 c1.5625 -0.625 2.9166 -1.5104 4.0625 -2.6563 s2.0313 -2.5 2.6563 -4.0625 s0.9375 -3.2813 0.9375 -5.1563 c0 -1.8229 -0.3125 -3.5156 -0.9375 -5.0781 c-0.625 -1.6146 -1.5104 -2.9427 -2.6563 -3.9844 c-1.0416 -1.0938 -2.3958 -1.9791 -4.0624 -2.6563 c-1.6666 -0.625 -3.4635 -0.9375 -5.3906 -0.9375 l-8.5938 0 l0 -5.9375 l8.6719 0 c2.7604 0 5.4166 0.49477 7.9688 1.4844 c2.3959 0.88539 4.5052 2.2135 6.3281 3.9844 c1.7709 1.6146 3.125 3.5938 4.0625 5.9375 c0.98961 2.3959 1.4844 4.8438 1.4844 7.3438 c0 2.7084 -0.49477 5.1563 -1.4844 7.3438 z"></path></g>
			</g>
		</svg>
	